{"title":"Anal Attack # 9 DVD","uid":6958209,"size":1934133811,"categoryP":"porn","categoryS":"movies","magnet":"?xt=urn:btih:23634097ce1fa8bba6f6548222e5874c2ce57fe1&amp;dn=Anal+Attack+%23+9+DVD&amp;tr=udp%3A%2F%2Ftracker.openbittorrent.com%3A80&amp;tr=udp%3A%2F%2Fopen.demonii.com%3A1337&amp;tr=udp%3A%2F%2Ftracker.coppersurfer.tk%3A6969&amp;tr=udp%3A%2F%2Fexodus.desync.com%3A6969","seeders":0,"leechers":1,"uploader":"tigris1968","files":87,"time":1326664654,"description":"Anal Attack # 9 DVD\n\nCategory \tAll Sex, Anal\nStarring \tKarina, Lisa Sparkle, Tanya, Julia, Lucy, Bernadette, Nikoletta\n\nStudio \tEvil Angel\nDiscs \t1\nRelease Date \tJan 12, 2012\n &lt;a href=&quot;\nhttp://bayimg.com/CAlndaAdO&quot; rel=&quot;nofollow&quot; target=&quot;_NEW&quot;&gt;\nhttp://bayimg.com/CAlndaAdO&lt;/a&gt;\n &lt;a href=&quot;\nhttp://bayimg.com/CALNGaAdO&quot; rel=&quot;nofollow&quot; target=&quot;_NEW&quot;&gt;\nhttp://bayimg.com/CALNGaAdO&lt;/a&gt;\n &lt;a href=&quot;\nhttp://bayimg.com/cALNHAAdo&quot; rel=&quot;nofollow&quot; target=&quot;_NEW&quot;&gt;\nhttp://bayimg.com/cALNHAAdo&lt;/a&gt;\n\nGeneral\nComplete name                    : C:\\Downloads\\Anal Attack # 9 DVD\\dvd\\Anal Attack # 9 DVD.avi\nFormat                           : AVI\nFormat/Info                      : Audio Video Interleave\nFormat profile                   : OpenDML\nFile size                        : 1.78 GiB\nDuration                         : 3h 10mn\nOverall bit rate                 : 1 341 Kbps\nWriting application              : MEncoder SVN-r30881(20100311-gcc4.3.3)\nWriting library                  : MPlayer\n\nVideo\nID                               : 0\nFormat                           : MPEG-4 Visual\nFormat profile                   : Advanced Simple@L5\nFormat settings, BVOP            : 2\nFormat settings, QPel            : No\nFormat settings, GMC             : No warppoints\nFormat settings, Matrix          : Default (H.263)\nCodec ID                         : XVID\nCodec ID/Hint                    : XviD\nDuration                         : 3h 10mn\nBit rate                         : 34.3 Kbps\nWidth                            : 720 pixels\nHeight                           : 480 pixels\nDisplay aspect ratio             : 3:2\nFrame rate                       : 25.000 fps\nStandard                         : NTSC\nColor space                      : YUV\nChroma subsampling               : 4:2:0\nBit depth                        : 8 bits\nScan type                        : Progressive\nCompression mode                 : Lossy\nBits/(Pixel*Frame)               : 0.004\nStream size                      : 46.7 MiB (3%)\nWriting library                  : XviD 1.2.1 (UTC 2008-12-04)\n\nAudio\nID                               : 1\nFormat                           : MPEG Audio\nCodec ID                         : 55\nCodec ID/Hint                    : MP3\nDuration                         : 3h 10mn\nBit rate                         : 128 Kbps\nChannel(s)                       : 2 channels\nSampling rate                    : 44.1 KHz\nCompression mode                 : Lossy\nStream size                      : 174 MiB (10%)\nAlignment                        : Aligned on interleaves\n\n","torrent":{"xt":"urn:btih:23634097ce1fa8bba6f6548222e5874c2ce57fe1","amp;dn":"Anal+Attack+%23+9+DVD","amp;tr":["udp%3A%2F%2Ftracker.openbittorrent.com%3A80","udp%3A%2F%2Fopen.demonii.com%3A1337","udp%3A%2F%2Ftracker.coppersurfer.tk%3A6969","udp%3A%2F%2Fexodus.desync.com%3A6969"],"infoHash":"23634097ce1fa8bba6f6548222e5874c2ce57fe1","infoHashBuffer":{"type":"Buffer","data":[35,99,64,151,206,31,168,187,166,246,84,130,34,229,135,76,44,229,127,225]},"announce":[],"urlList":[]}}